<?xml version="1.0" encoding="utf-8"?>
<!-- Generator: Adobe Illustrator 22.1.0, SVG Export Plug-In . SVG Version: 6.00 Build 0)  -->
<svg version="1.1" id="Слой_2_1_" xmlns="http://www.w3.org/2000/svg" xmlns:xlink="http://www.w3.org/1999/xlink" x="0px"
	 y="0px" viewBox="0 0 449.6 475.9" style="enable-background:new 0 0 449.6 475.9;" xml:space="preserve">
<style type="text/css">
	.st0{fill:#FFFFFF;}
	.st1{fill:#FED700;}
</style>
<title>лого большой сайт биг</title>
<rect x="47.3" y="20.5" width="335.3" height="455.3"/>
<path class="st0" d="M284.5,475.3c-7.5,0-15.2-0.2-22.7-0.4h-0.4l-0.1-0.4c-2.2-11.9-4.5-23.8-6.8-35.5c-3.8-19.4-6-30.1-11-43.9
	c-3.3-9.8-8.8-18.8-15.9-26.3c-7.4-7.6-11.4-7.8-12.7-7.9h-0.5c-6.7,0-12.1,6.1-17.1,12.3c-13.6,17.2-25.6,35.6-35.9,54.9
	c-4.1,7.6-7.4,13.6-11.4,21.9c-0.6,1.2-1.3,2.7-2.3,4.9c-1.4,3-3.5,7.3-6.6,13.8l-2.9,6.1H138c-1.4,0-3.6,0.1-6.2,0.1
	c-2,0-3.7,0-5,0c-1.6,0-2.9,0-4.1,0s-2.2,0-3.5,0h-2.6c-3.8,0-6.2,0.2-8.3,0.3s-3.8,0.2-6.3,0.2h-2.5c-2.7,0-5.4-0.2-8-0.3h-0.6
	l0.2-0.6c0.8-2.4,1.7-4.8,2.7-7.1c1.2-2.8,2.2-4.8,3.4-7.4l0.5-1c1-2,1.9-4,2.9-6c0.8-1.6,1.5-3.2,2.3-4.8
	c5.6-11.6,15.7-34.1,15.8-34.3c26.4-58.8,29.5-66.7,32-73c6.3-15.2,11.3-30.9,15-46.9c4.8-21.2,3.8-28.7,2.5-34
	c-2.7-11.2-8.9-17.9-21.3-31.4l-0.1-0.1c-13-13.6-27.3-25.8-42.7-36.4L104,192c-0.9-0.6-3.8-2.6-7.4-5.4c-2.3-1.8-4.6-3.8-6.7-5.8
	l-0.3-0.3l0.2-0.3c2.4-4.6,5-9.2,7.8-13.6c1.9-3,3.8-6,5.8-8.9l0.3-0.4l0.4,0.2c10.8,5.5,21.5,11.1,31.9,16.6
	c3.8,2,7.2,3.8,10.2,5.4c11.7,6.2,18.2,9.6,28.3,14.3c20.4,9.4,28.5,11.2,31.9,12c5.7,1.3,12.2,2.8,19.6,2.8c3.1,0,6.2-0.3,9.2-0.8
	c10.9-1.8,18.3-6.1,24.8-9.9c10.2-6,19.3-13.8,26.9-22.9c1.1-1.3,6.2-8.1,16.5-21.7l5.6-7.4l0.4,0.1c4.2,1.7,8.4,3.6,12.4,5.7
	c4.2,2.2,8.3,4.6,12.3,7.2l0.4,0.3l-0.2,0.4c-2.6,5-5.4,10-8.3,14.9c-2.5,4.2-6.3,10.5-14,22.2c-9.9,15-19.1,27.9-19.2,28
	c-2,2.8-3.6,5.1-5,7c-4.7,6.6-6.5,9.1-9,13.9c-3.2,6.5-5.7,13.3-7.5,20.4c-1.6,6.6-3.2,15.6-1.5,39.3c1.5,18.8,4.2,37.5,8,55.9
	c2.7,13.4,5.3,24,7,31c2.8,11.3,4.9,18.9,6.8,25.5c2.2,7.7,4,14.4,6.3,24.5c2.4,10.7,4.3,21.8,5.8,32.9l0.1,0.6H303
	c-5.2,0.1-10.5,0.2-15.7,0.2L284.5,475.3z"/>
<path class="st1" d="M17,203.5L215.5,65l200.8,137.5l33.3-58.3L249.5,0L0,174l8.5,13.5C11.3,192.8,14.2,198.2,17,203.5z"/>
<path class="st0" d="M100.3,468.6"/>
<path class="st0" d="M226.1,192c-0.5,0-1.1,0-1.6,0c-4.7-0.2-9.3-1.5-13.4-3.9c-2.3-1.4-5.8-3.5-8-7.5c-3.7-6.7-1.6-14-0.5-17.5
	c2.2-7.6,6.7-12.3,9.9-15.7c5.8-6.1,13-10.7,21-13.3c4-1.4,8.2-2.2,12.4-2.3c0.8,0,1.5,0,2.3,0.1c4,0.3,9.5,0.6,14.3,4.8
	c3,2.6,5.2,6.2,6.2,10.1c1.3,4.9,0.4,8.8-0.5,12.9c-0.9,4.2-2.6,8.2-4.9,11.8c-2.5,3.8-5.6,7.1-9.3,9.8c-5,4-10.8,7.1-17,8.9
	C233.5,191.4,229.8,192,226.1,192L226.1,192z"/>
<path d="M245.9,132.3c0.7,0,1.5,0,2.2,0.1c3.9,0.3,9.3,0.6,14,4.7c2.9,2.6,5,6,6,9.8c1.3,4.8,0.4,8.6-0.5,12.7
	c-0.9,4.1-2.6,8.1-4.8,11.7c-2.5,3.7-5.6,7-9.2,9.7c-5,4-10.7,7-16.8,8.8c-3.5,1.2-7.1,1.8-10.7,1.9c-0.5,0-1,0-1.6,0
	c-4.6-0.2-9.2-1.5-13.2-3.8c-2.3-1.4-5.6-3.4-7.8-7.3c-3.6-6.5-1.5-13.6-0.5-17.2c2.2-7.5,6.5-12,9.8-15.5
	c5.8-6,12.9-10.6,20.8-13.2C237.6,133.1,241.8,132.4,245.9,132.3 M245.9,131.3c-4.3,0.1-8.5,0.8-12.6,2.3
	c-8.1,2.6-15.4,7.3-21.3,13.4c-3.3,3.5-7.8,8.2-10.1,15.9c-1,3.6-3.2,11.1,0.6,17.9c2.3,4.2,5.9,6.3,8.2,7.7c4.1,2.5,8.8,3.8,13.6,4
	c0.6,0,1.1,0,1.6,0c3.7-0.1,7.5-0.7,11-1.9c6.2-1.9,12.1-4.9,17.2-9c3.7-2.7,6.9-6.1,9.4-9.9c2.4-3.7,4-7.7,5-12
	c1-4.2,1.8-8.1,0.5-13.1c-1-4-3.2-7.6-6.3-10.3c-5-4.3-10.5-4.6-14.6-4.9C247.5,131.3,246.7,131.3,245.9,131.3L245.9,131.3z"/>
<rect x="47.3" y="-1819.5" width="335.3" height="455.3"/>
<path class="st0" d="M284.5-1364.7c-7.5,0-15.2-0.2-22.7-0.4h-0.4l-0.1-0.4c-2.2-11.9-4.5-23.8-6.8-35.5c-3.8-19.4-6-30.1-11-43.9
	c-3.3-9.8-8.8-18.8-15.9-26.3c-7.4-7.6-11.4-7.8-12.7-7.9h-0.5c-6.7,0-12.1,6.1-17.1,12.3c-13.6,17.2-25.6,35.6-35.9,54.9
	c-4.1,7.6-7.4,13.6-11.4,21.9c-0.6,1.2-1.3,2.7-2.3,4.9c-1.4,3-3.5,7.3-6.6,13.8l-2.9,6.1H138c-1.4,0-3.6,0.1-6.2,0.1
	c-2,0-3.7,0-5,0c-1.6,0-2.9,0-4.1,0s-2.2,0-3.5,0h-2.6c-3.8,0-6.2,0.2-8.3,0.3s-3.8,0.2-6.3,0.2h-2.5c-2.7,0-5.4-0.2-8-0.3h-0.6
	l0.2-0.6c0.8-2.4,1.7-4.8,2.7-7.1c1.2-2.8,2.2-4.8,3.4-7.4l0.5-1c1-2,1.9-4,2.9-6c0.8-1.6,1.5-3.2,2.3-4.8
	c5.6-11.6,15.7-34.1,15.8-34.3c26.4-58.8,29.5-66.7,32-73c6.3-15.2,11.3-30.9,15-46.9c4.8-21.2,3.8-28.7,2.5-34
	c-2.7-11.2-8.9-17.9-21.3-31.4l-0.1-0.1c-13-13.6-27.3-25.8-42.7-36.4l-0.1-0.1c-0.9-0.6-3.8-2.6-7.4-5.4c-2.3-1.8-4.6-3.8-6.7-5.8
	l-0.3-0.3l0.2-0.3c2.4-4.6,5-9.2,7.8-13.6c1.9-3,3.8-6,5.8-8.9l0.3-0.4l0.4,0.2c10.8,5.5,21.5,11.1,31.9,16.6
	c3.8,2,7.2,3.8,10.2,5.4c11.7,6.2,18.2,9.6,28.3,14.3c20.4,9.4,28.5,11.2,31.9,12c5.7,1.3,12.2,2.8,19.6,2.8c3.1,0,6.2-0.3,9.2-0.8
	c10.9-1.8,18.3-6.1,24.8-9.9c10.2-6,19.3-13.8,26.9-22.9c1.1-1.3,6.2-8.1,16.5-21.7l5.6-7.4l0.4,0.1c4.2,1.7,8.4,3.6,12.4,5.7
	c4.2,2.2,8.3,4.6,12.3,7.2l0.4,0.3l-0.2,0.4c-2.6,5-5.4,10-8.3,14.9c-2.5,4.2-6.3,10.5-14,22.2c-9.9,15-19.1,27.9-19.2,28
	c-2,2.8-3.6,5.1-5,7c-4.7,6.6-6.5,9.1-9,13.9c-3.2,6.5-5.7,13.3-7.5,20.4c-1.6,6.6-3.2,15.6-1.5,39.3c1.5,18.8,4.2,37.5,8,55.9
	c2.7,13.4,5.3,24,7,31c2.8,11.3,4.9,18.9,6.8,25.5c2.2,7.7,4,14.4,6.3,24.5c2.4,10.7,4.3,21.8,5.8,32.9l0.1,0.6H303
	c-5.2,0.1-10.5,0.2-15.7,0.2L284.5-1364.7z"/>
<path class="st1" d="M17-1636.5L215.5-1775l200.8,137.5l33.3-58.3L249.5-1840L0-1666l8.5,13.5C11.3-1647.2,14.2-1641.8,17-1636.5z"
	/>
<path class="st0" d="M100.3-1371.4"/>
<path class="st0" d="M226.1-1648c-0.5,0-1.1,0-1.6,0c-4.7-0.2-9.3-1.5-13.4-3.9c-2.3-1.4-5.8-3.5-8-7.5c-3.7-6.7-1.6-14-0.5-17.5
	c2.2-7.6,6.7-12.3,9.9-15.7c5.8-6.1,13-10.7,21-13.3c4-1.4,8.2-2.2,12.4-2.3c0.8,0,1.5,0,2.3,0.1c4,0.3,9.5,0.6,14.3,4.8
	c3,2.6,5.2,6.2,6.2,10.1c1.3,4.9,0.4,8.8-0.5,12.9c-0.9,4.2-2.6,8.2-4.9,11.8c-2.5,3.8-5.6,7.1-9.3,9.8c-5,4-10.8,7.1-17,8.9
	C233.5-1648.6,229.8-1648,226.1-1648L226.1-1648z"/>
<path d="M245.9-1707.7c0.7,0,1.5,0,2.2,0.1c3.9,0.3,9.3,0.6,14,4.7c2.9,2.6,5,6,6,9.8c1.3,4.8,0.4,8.6-0.5,12.7s-2.6,8.1-4.8,11.7
	c-2.5,3.7-5.6,7-9.2,9.7c-5,4-10.7,7-16.8,8.8c-3.5,1.2-7.1,1.8-10.7,1.9c-0.5,0-1,0-1.6,0c-4.6-0.2-9.2-1.5-13.2-3.8
	c-2.3-1.4-5.6-3.4-7.8-7.3c-3.6-6.5-1.5-13.6-0.5-17.2c2.2-7.5,6.5-12,9.8-15.5c5.8-6,12.9-10.6,20.8-13.2
	C237.6-1706.9,241.8-1707.6,245.9-1707.7 M245.9-1708.7c-4.3,0.1-8.5,0.8-12.6,2.3c-8.1,2.6-15.4,7.3-21.3,13.4
	c-3.3,3.5-7.8,8.2-10.1,15.9c-1,3.6-3.2,11.1,0.6,17.9c2.3,4.2,5.9,6.3,8.2,7.7c4.1,2.5,8.8,3.8,13.6,4c0.6,0,1.1,0,1.6,0
	c3.7-0.1,7.5-0.7,11-1.9c6.2-1.9,12.1-4.9,17.2-9c3.7-2.7,6.9-6.1,9.4-9.9c2.4-3.7,4-7.7,5-12c1-4.2,1.8-8.1,0.5-13.1
	c-1-4-3.2-7.6-6.3-10.3c-5-4.3-10.5-4.6-14.6-4.9C247.5-1708.7,246.7-1708.7,245.9-1708.7L245.9-1708.7z"/>
<text transform="matrix(0.9 0 0 1 457 -1370.16)" class="st0" style="font-family:'Impact'; font-size:270px; letter-spacing:4.4;">СТАЛЬКОМПЛЕКТ</text>
<text transform="matrix(0.9 0 0 1 460 -1636.4999)" class="st0" style="font-family:'Impact'; font-size:200px;">Завод МеталлоКровли</text>
<polygon points="380.3,-854.3 382.6,-480.2 47.3,-480.2 49,-810.1 224.8,-931 278.7,-928.3 "/>
<path class="st0" d="M284.5-480.7c-7.5,0-15.2-0.2-22.7-0.4h-0.4l-0.1-0.4c-2.2-11.9-4.5-23.8-6.8-35.5c-3.8-19.4-6-30.1-11-43.9
	c-3.3-9.8-8.8-18.8-15.9-26.3c-7.4-7.6-11.4-7.8-12.7-7.9h-0.5c-6.7,0-12.1,6.1-17.1,12.3c-13.6,17.2-25.6,35.6-35.9,54.9
	c-4.1,7.6-7.4,13.6-11.4,21.9c-0.6,1.2-1.3,2.7-2.3,4.9c-1.4,3-3.5,7.3-6.6,13.8l-2.9,6.1H138c-1.4,0-3.6,0.1-6.2,0.1
	c-2,0-3.7,0-5,0c-1.6,0-2.9,0-4.1,0s-2.2,0-3.5,0h-2.6c-3.8,0-6.2,0.2-8.3,0.3s-3.8,0.2-6.3,0.2h-2.5c-2.7,0-5.4-0.2-8-0.3h-0.6
	l0.2-0.6c0.8-2.4,1.7-4.8,2.7-7.1c1.2-2.8,2.2-4.8,3.4-7.4l0.5-1c1-2,1.9-4,2.9-6c0.8-1.6,1.5-3.2,2.3-4.8
	c5.6-11.6,15.7-34.1,15.8-34.3c26.4-58.8,29.5-66.7,32-73c6.3-15.2,11.3-30.9,15-46.9c4.8-21.2,3.8-28.7,2.5-34
	c-2.7-11.2-8.9-17.9-21.3-31.4l-0.1-0.1c-13-13.6-27.3-25.8-42.7-36.4L104-764c-0.9-0.6-3.8-2.6-7.4-5.4c-2.3-1.8-4.6-3.8-6.7-5.8
	l-0.3-0.3l0.2-0.3c2.4-4.6,5-9.2,7.8-13.6c1.9-3,3.8-6,5.8-8.9l0.3-0.4l0.4,0.2c10.8,5.5,21.5,11.1,31.9,16.6
	c3.8,2,7.2,3.8,10.2,5.4c11.7,6.2,18.2,9.6,28.3,14.3c20.4,9.4,28.5,11.2,31.9,12c5.7,1.3,12.2,2.8,19.6,2.8c3.1,0,6.2-0.3,9.2-0.8
	c10.9-1.8,18.3-6.1,24.8-9.9c10.2-6,19.3-13.8,26.9-22.9c1.1-1.3,6.2-8.1,16.5-21.7l5.6-7.4l0.4,0.1c4.2,1.7,8.4,3.6,12.4,5.7
	c4.2,2.2,8.3,4.6,12.3,7.2l0.4,0.3l-0.2,0.4c-2.6,5-5.4,10-8.3,14.9c-2.5,4.2-6.3,10.5-14,22.2c-9.9,15-19.1,27.9-19.2,28
	c-2,2.8-3.6,5.1-5,7c-4.7,6.6-6.5,9.1-9,13.9c-3.2,6.5-5.7,13.3-7.5,20.4c-1.6,6.6-3.2,15.6-1.5,39.3c1.5,18.8,4.2,37.5,8,55.9
	c2.7,13.4,5.3,24,7,31c2.8,11.3,4.9,18.9,6.8,25.5c2.2,7.7,4,14.4,6.3,24.5c2.4,10.7,4.3,21.8,5.8,32.9l0.1,0.6H303
	c-5.2,0.1-10.5,0.2-15.7,0.2L284.5-480.7z"/>
<path class="st0" d="M449.6-811.8l-33.3,58.3l-33.7-23.1L215.5-891L47.3-773.6L17-752.5c-2.8-5.3-5.7-10.7-8.5-16L0-782l47.3-33
	l172.8-120.5l29.4-20.5l28.5,20.5l104.6,75.4L449.6-811.8z"/>
<path class="st0" d="M100.3-487.4"/>
<path class="st0" d="M226.1-764c-0.5,0-1.1,0-1.6,0c-4.7-0.2-9.3-1.5-13.4-3.9c-2.3-1.4-5.8-3.5-8-7.5c-3.7-6.7-1.6-14-0.5-17.5
	c2.2-7.6,6.7-12.3,9.9-15.7c5.8-6.1,13-10.7,21-13.3c4-1.4,8.2-2.2,12.4-2.3c0.8,0,1.5,0,2.3,0.1c4,0.3,9.5,0.6,14.3,4.8
	c3,2.6,5.2,6.2,6.2,10.1c1.3,4.9,0.4,8.8-0.5,12.9c-0.9,4.2-2.6,8.2-4.9,11.8c-2.5,3.8-5.6,7.1-9.3,9.8c-5,4-10.8,7.1-17,8.9
	C233.5-764.6,229.8-764,226.1-764L226.1-764z"/>
<path d="M245.9-823.7c0.7,0,1.5,0,2.2,0.1c3.9,0.3,9.3,0.6,14,4.7c2.9,2.6,5,6,6,9.8c1.3,4.8,0.4,8.6-0.5,12.7
	c-0.9,4.1-2.6,8.1-4.8,11.7c-2.5,3.7-5.6,7-9.2,9.7c-5,4-10.7,7-16.8,8.8c-3.5,1.2-7.1,1.8-10.7,1.9c-0.5,0-1,0-1.6,0
	c-4.6-0.2-9.2-1.5-13.2-3.8c-2.3-1.4-5.6-3.4-7.8-7.3c-3.6-6.5-1.5-13.6-0.5-17.2c2.2-7.5,6.5-12,9.8-15.5
	c5.8-6,12.9-10.6,20.8-13.2C237.6-822.9,241.8-823.6,245.9-823.7 M245.9-824.7c-4.3,0.1-8.5,0.8-12.6,2.3
	c-8.1,2.6-15.4,7.3-21.3,13.4c-3.3,3.5-7.8,8.2-10.1,15.9c-1,3.6-3.2,11.1,0.6,17.9c2.3,4.2,5.9,6.3,8.2,7.7c4.1,2.5,8.8,3.8,13.6,4
	c0.6,0,1.1,0,1.6,0c3.7-0.1,7.5-0.7,11-1.9c6.2-1.9,12.1-4.9,17.2-9c3.7-2.7,6.9-6.1,9.4-9.9c2.4-3.7,4-7.7,5-12
	c1-4.2,1.8-8.1,0.5-13.1c-1-4-3.2-7.6-6.3-10.3c-5-4.3-10.5-4.6-14.6-4.9C247.5-824.7,246.7-824.7,245.9-824.7L245.9-824.7z"/>
<text transform="matrix(0.9 0 0 1 457 -486.16)" style="font-family:'Impact'; font-size:270px; letter-spacing:4.4;">СТАЛЬКОМПЛЕКТ</text>
<text transform="matrix(0.9 0 0 1 460 -752.4999)" style="font-family:'Impact'; font-size:200px;">Завод МеталлоКровли</text>
<path class="st0" d="M2339.5,468.6"/>
<rect x="-2.9" y="841.7" width="335.3" height="455.3"/>
<path class="st0" d="M234.3,1296.5c-7.5,0-15.2-0.2-22.7-0.4h-0.4l-0.1-0.4c-2.2-11.9-4.5-23.8-6.8-35.5c-3.8-19.4-6-30.1-11-43.9
	c-3.3-9.8-8.8-18.8-15.9-26.3c-7.4-7.6-11.4-7.8-12.7-7.9h-0.5c-6.7,0-12.1,6.1-17.1,12.3c-13.6,17.2-25.6,35.6-35.9,54.9
	c-4.1,7.6-7.4,13.6-11.4,21.9c-0.6,1.2-1.3,2.7-2.3,4.9c-1.4,3-3.5,7.3-6.6,13.8L88,1296h-0.2c-1.4,0-3.6,0.1-6.2,0.1
	c-2,0-3.7,0-5,0c-1.6,0-2.9,0-4.1,0s-2.2,0-3.5,0h-2.6c-3.8,0-6.2,0.2-8.3,0.3s-3.8,0.2-6.3,0.2h-2.5c-2.7,0-5.4-0.2-8-0.3h-0.6
	l0.2-0.6c0.8-2.4,1.7-4.8,2.7-7.1c1.2-2.8,2.2-4.8,3.4-7.4l0.5-1c1-2,1.9-4,2.9-6c0.8-1.6,1.5-3.2,2.3-4.8
	c5.6-11.6,15.7-34.1,15.8-34.3c26.4-58.8,29.5-66.7,32-73c6.3-15.2,11.3-30.9,15-46.9c4.8-21.2,3.8-28.7,2.5-34
	c-2.7-11.2-8.9-17.9-21.3-31.4l-0.1-0.1c-13-13.6-27.3-25.8-42.7-36.4l-0.1-0.1c-0.9-0.6-3.8-2.6-7.4-5.4c-2.3-1.8-4.6-3.8-6.7-5.8
	l-0.3-0.3l0.2-0.3c2.4-4.6,5-9.2,7.8-13.6c1.9-3,3.8-6,5.8-8.9l0.3-0.4l0.4,0.2c10.8,5.5,21.5,11.1,31.9,16.6
	c3.8,2,7.2,3.8,10.2,5.4c11.7,6.2,18.2,9.6,28.3,14.3c20.4,9.4,28.5,11.2,31.9,12c5.7,1.3,12.2,2.8,19.6,2.8c3.1,0,6.2-0.3,9.2-0.8
	c10.9-1.8,18.3-6.1,24.8-9.9c10.2-6,19.3-13.8,26.9-22.9c1.1-1.3,6.2-8.1,16.5-21.7l5.6-7.4l0.4,0.1c4.2,1.7,8.4,3.6,12.4,5.7
	c4.2,2.2,8.3,4.6,12.3,7.2l0.4,0.3l-0.2,0.4c-2.6,5-5.4,10-8.3,14.9c-2.5,4.2-6.3,10.5-14,22.2c-9.9,15-19.1,27.9-19.2,28
	c-2,2.8-3.6,5.1-5,7c-4.7,6.6-6.5,9.1-9,13.9c-3.2,6.5-5.7,13.3-7.5,20.4c-1.6,6.6-3.2,15.6-1.5,39.3c1.5,18.8,4.2,37.5,8,55.9
	c2.7,13.4,5.3,24,7,31c2.8,11.3,4.9,18.9,6.8,25.5c2.2,7.7,4,14.4,6.3,24.5c2.4,10.7,4.3,21.8,5.8,32.9l0.1,0.6h-0.8
	c-5.2,0.1-10.5,0.2-15.7,0.2L234.3,1296.5z"/>
<path class="st1" d="M-33.2,1024.7l198.5-138.5l200.8,137.5l33.3-58.3L199.3,821.2l-249.5,174l8.5,13.5
	C-38.9,1014-36,1019.4-33.2,1024.7z"/>
<path class="st0" d="M50.2,1289.8"/>
<path class="st0" d="M175.9,1013.2c-0.5,0-1.1,0-1.6,0c-4.7-0.2-9.3-1.5-13.4-3.9c-2.3-1.4-5.8-3.5-8-7.5c-3.7-6.7-1.6-14-0.5-17.5
	c2.2-7.6,6.7-12.3,9.9-15.7c5.8-6.1,13-10.7,21-13.3c4-1.4,8.2-2.2,12.4-2.3c0.8,0,1.5,0,2.3,0.1c4,0.3,9.5,0.6,14.3,4.8
	c3,2.6,5.2,6.2,6.2,10.1c1.3,4.9,0.4,8.8-0.5,12.9c-0.9,4.2-2.6,8.2-4.9,11.8c-2.5,3.8-5.6,7.1-9.3,9.8c-5,4-10.8,7.1-17,8.9
	C183.3,1012.6,179.6,1013.2,175.9,1013.2L175.9,1013.2z"/>
<path d="M195.8,953.5c0.7,0,1.5,0,2.2,0.1c3.9,0.3,9.3,0.6,14,4.7c2.9,2.6,5,6,6,9.8c1.3,4.8,0.4,8.6-0.5,12.7
	c-0.9,4.1-2.6,8.1-4.8,11.7c-2.5,3.7-5.6,7-9.2,9.7c-5,4-10.7,7-16.8,8.8c-3.5,1.2-7.1,1.8-10.7,1.9c-0.5,0-1,0-1.6,0
	c-4.6-0.2-9.2-1.5-13.2-3.8c-2.3-1.4-5.6-3.4-7.8-7.3c-3.6-6.5-1.5-13.6-0.5-17.2c2.2-7.5,6.5-12,9.8-15.5
	c5.8-6,12.9-10.6,20.8-13.2C187.4,954.3,191.6,953.6,195.8,953.5 M195.8,952.5c-4.3,0.1-8.5,0.8-12.6,2.3
	c-8.1,2.6-15.4,7.3-21.3,13.4c-3.3,3.5-7.8,8.2-10.1,15.9c-1,3.6-3.2,11.1,0.6,17.9c2.3,4.2,5.9,6.3,8.2,7.7c4.1,2.5,8.8,3.8,13.6,4
	c0.6,0,1.1,0,1.6,0c3.7-0.1,7.5-0.7,11-1.9c6.2-1.9,12.1-4.9,17.2-9c3.7-2.7,6.9-6.1,9.4-9.9c2.4-3.7,4-7.7,5-12
	c1-4.2,1.8-8.1,0.5-13.1c-1-4-3.2-7.6-6.3-10.3c-5-4.3-10.5-4.6-14.6-4.9C197.3,952.5,196.5,952.5,195.8,952.5L195.8,952.5z"/>
<text transform="matrix(0.9 0 0 1 406.8496 1291.0255)" style="font-family:'Impact'; font-size:270px; letter-spacing:4.4;">СТАЛЬКОМПЛЕКТ</text>
<text transform="matrix(0.9 0 0 1 -7.1514 1469.3175)" class="st1" style="font-family:'Impact'; font-size:179.7513px; letter-spacing:2.2;">ОТДЕЛ ФЕДЕРАЛЬНЫХ ПРОДАЖ</text>
<text transform="matrix(0.9 0 0 1 409.8496 1024.6857)" style="font-family:'Impact'; font-size:200px;">Завод МеталлоКровли</text>
<path class="st0" d="M2289.3,1289.8"/>
<rect x="3127.3" y="-2443.8" width="335.3" height="488.7"/>
<path class="st0" d="M3364.5-1955.6c-7.5,0-15.2-0.2-22.7-0.4h-0.4l-0.1-0.4c-2.2-11.9-4.5-23.8-6.8-35.5c-3.8-19.4-6-30.1-11-43.9
	c-3.3-9.8-8.8-18.8-15.9-26.3c-7.4-7.6-11.4-7.8-12.7-7.9h-0.5c-6.7,0-12.1,6.1-17.1,12.3c-13.6,17.2-25.6,35.6-35.9,54.9
	c-4.1,7.6-7.4,13.6-11.4,21.9c-0.6,1.2-1.3,2.7-2.3,4.9c-1.4,3-3.5,7.3-6.6,13.8l-2.9,6.1h-0.2c-1.4,0-3.6,0.1-6.2,0.1
	c-2,0-3.7,0-5,0c-1.6,0-2.9,0-4.1,0s-2.2,0-3.5,0h-2.6c-3.8,0-6.2,0.2-8.3,0.3c-2.1,0.1-3.8,0.2-6.3,0.2h-2.5c-2.7,0-5.4-0.2-8-0.3
	h-0.6l0.2-0.6c0.8-2.4,1.7-4.8,2.7-7.1c1.2-2.8,2.2-4.8,3.4-7.4l0.5-1c1-2,1.9-4,2.9-6c0.8-1.6,1.5-3.2,2.3-4.8
	c5.6-11.6,15.7-34.1,15.8-34.3c26.4-58.8,29.5-66.7,32-73c6.3-15.2,11.3-30.9,15-46.9c4.8-21.2,3.8-28.7,2.5-34
	c-2.7-11.2-8.9-17.9-21.3-31.4l-0.1-0.1c-13-13.6-27.3-25.8-42.7-36.4l-0.1-0.1c-0.9-0.6-3.8-2.6-7.4-5.4c-2.3-1.8-4.6-3.8-6.7-5.8
	l-0.3-0.3l0.2-0.3c2.4-4.6,5-9.2,7.8-13.6c1.9-3,3.8-6,5.8-8.9l0.3-0.4l0.4,0.2c10.8,5.5,21.5,11.1,31.9,16.6
	c3.8,2,7.2,3.8,10.2,5.4c11.7,6.2,18.2,9.6,28.3,14.3c20.4,9.4,28.5,11.2,31.9,12c5.7,1.3,12.2,2.8,19.6,2.8c3.1,0,6.2-0.3,9.2-0.8
	c10.9-1.8,18.3-6.1,24.8-9.9c10.2-6,19.3-13.8,26.9-22.9c1.1-1.3,6.2-8.1,16.5-21.7l5.6-7.4l0.4,0.1c4.2,1.7,8.4,3.6,12.4,5.7
	c4.2,2.2,8.3,4.6,12.3,7.2l0.4,0.3l-0.2,0.4c-2.6,5-5.4,10-8.3,14.9c-2.5,4.2-6.3,10.5-14,22.2c-9.9,15-19.1,27.9-19.2,28
	c-2,2.8-3.6,5.1-5,7c-4.7,6.6-6.5,9.1-9,13.9c-3.2,6.5-5.7,13.3-7.5,20.4c-1.6,6.6-3.2,15.6-1.5,39.3c1.5,18.8,4.2,37.5,8,55.9
	c2.7,13.4,5.3,24,7,31c2.8,11.3,4.9,18.9,6.8,25.5c2.2,7.7,4,14.4,6.3,24.5c2.4,10.7,4.3,21.8,5.8,32.9l0.1,0.6h-0.8
	c-5.2,0.1-10.5,0.2-15.7,0.2L3364.5-1955.6z"/>
<polygon class="st1" points="3462.6,-2335 3462.6,-2251.5 3295.5,-2365.9 3127.3,-2248.5 3127.3,-2289.9 3300.1,-2410.4 
	3329.5,-2430.9 3357.9,-2410.4 "/>
<path class="st0" d="M3306.1-2238.9c-0.5,0-1.1,0-1.6,0c-4.7-0.2-9.3-1.5-13.4-3.9c-2.3-1.4-5.8-3.5-8-7.5c-3.7-6.7-1.6-14-0.5-17.5
	c2.2-7.6,6.7-12.3,9.9-15.7c5.8-6.1,13-10.7,21-13.3c4-1.4,8.2-2.2,12.4-2.3c0.8,0,1.5,0,2.3,0.1c4,0.3,9.5,0.6,14.3,4.8
	c3,2.6,5.2,6.2,6.2,10.1c1.3,4.9,0.4,8.8-0.5,12.9c-0.9,4.2-2.6,8.2-4.9,11.8c-2.5,3.8-5.6,7.1-9.3,9.8c-5,4-10.8,7.1-17,8.9
	C3313.5-2239.5,3309.8-2238.9,3306.1-2238.9L3306.1-2238.9z"/>
<path d="M3349-2284.3c-1-4-3.2-7.6-6.3-10.3c-5-4.3-10.5-4.6-14.6-4.9c-0.6-0.1-1.4-0.1-2.2-0.1c-4.3,0.1-8.5,0.8-12.6,2.3
	c-8.1,2.6-15.4,7.3-21.3,13.4c-3.3,3.5-7.8,8.2-10.1,15.9c-1,3.6-3.2,11.1,0.6,17.9c2.3,4.2,5.9,6.3,8.2,7.7c4.1,2.5,8.8,3.8,13.6,4
	h1.6c3.7-0.1,7.5-0.7,11-1.9c6.2-1.9,12.1-4.9,17.2-9c3.7-2.7,6.9-6.1,9.4-9.9c2.4-3.7,4-7.7,5-12
	C3349.5-2275.4,3350.3-2279.3,3349-2284.3z M3306.1-2239.2h-1.6c-4.6-0.2-9.2-1.5-13.2-3.8c-2.3-1.4-5.6-3.4-7.8-7.3
	c-3.6-6.5-1.5-13.6-0.5-17.2c2.2-7.5,6.5-12,9.8-15.5c5.8-6,12.9-10.6,20.8-13.2c4-1.6,8.2-2.3,12.3-2.4c0.7,0,1.5,0,2.2,0.1
	c3.9,0.3,9.3,0.6,14,4.7c2.9,2.6,5,6,6,9.8c1.3,4.8,0.4,8.6-0.5,12.7c-0.9,4.1-2.6,8.1-4.8,11.7c-2.5,3.7-5.6,7-9.2,9.7
	c-5,4-10.7,7-16.8,8.8C3313.3-2239.9,3309.7-2239.3,3306.1-2239.2z"/>
<path class="st0" d="M2339.5-487.4"/>
</svg>
